<?xml version="1.0" encoding="UTF-8" standalone="no"?>
<svg
   xmlns:dc="http://purl.org/dc/elements/1.1/"
   xmlns:cc="http://creativecommons.org/ns#"
   xmlns:rdf="http://www.w3.org/1999/02/22-rdf-syntax-ns#"
   xmlns:svg="http://www.w3.org/2000/svg"
   xmlns="http://www.w3.org/2000/svg"
   xmlns:sodipodi="http://sodipodi.sourceforge.net/DTD/sodipodi-0.dtd"
   xmlns:inkscape="http://www.inkscape.org/namespaces/inkscape"
   version="1.1"
   id="svg2"
   xml:space="preserve"
   width="377.94666"
   height="377.94666"
   viewBox="0 0 377.94666 377.94666"
   sodipodi:docname="Logo_Trondheim Sykkelkjøkken_med kant_2019.07.18.ai"><metadata
     id="metadata8"><rdf:RDF><cc:Work
         rdf:about=""><dc:format>image/svg+xml</dc:format><dc:type
           rdf:resource="http://purl.org/dc/dcmitype/StillImage" /></cc:Work></rdf:RDF></metadata><defs
     id="defs6"><clipPath
       clipPathUnits="userSpaceOnUse"
       id="clipPath18"><path
         d="M 0,283.46 H 283.46 V 0 H 0 Z"
         id="path16" /></clipPath></defs><sodipodi:namedview
     pagecolor="#ffffff"
     bordercolor="#666666"
     borderopacity="1"
     objecttolerance="10"
     gridtolerance="10"
     guidetolerance="10"
     inkscape:pageopacity="0"
     inkscape:pageshadow="2"
     inkscape:window-width="640"
     inkscape:window-height="480"
     id="namedview4" /><g
     id="g10"
     inkscape:groupmode="layer"
     inkscape:label="Logo_Trondheim Sykkelkjøkken_med kant_2019.07.18"
     transform="matrix(1.3333333,0,0,-1.3333333,0,377.94667)"><g
       id="g12"><g
         id="g14"
         clip-path="url(#clipPath18)"><g
           id="g20"
           transform="translate(138.3652,277.6616)"><path
             d="m 0,0 c 2.57,-5.275 2.695,-12.152 8.631,-13.24 7.865,-1.438 9.43,5.486 12.164,11.234 1.143,0.453 2.84,-0.084 4.316,-0.4 1.7,-7.625 1.61,-14.283 8.241,-15.248 1.732,-0.25 4.546,0.097 5.886,0.802 4.069,2.149 4.282,12.573 10.594,7.625 -1.385,-8.919 1.195,-20.322 11.381,-16.451 3.553,1.352 5.465,6.547 8.24,6.42 6.717,-0.31 1.012,-7.914 1.176,-12.037 0.16,-3.99 3.531,-7.465 6.279,-8.025 8.274,-1.686 11.174,9.914 16.481,2.408 -0.682,-4.963 -4.537,-6.127 -4.317,-11.234 0.186,-4.282 4.094,-7.829 8.241,-8.026 3.865,-0.182 7.005,3.369 10.986,3.211 0.844,-1.01 1.611,-2.098 2.355,-3.211 -0.468,-3.713 -5.508,-5.307 -6.279,-9.226 -1.049,-5.344 2.621,-10.629 8.24,-10.832 3.547,-0.131 4.783,2.498 9.811,1.603 0.5,-1.363 1.394,-2.32 1.963,-3.611 -1.844,-4.535 -7.35,-4.479 -8.635,-8.826 -2.797,-9.483 7.307,-11.909 16.875,-12.038 0.18,-1.419 0.873,-2.316 0.785,-4.011 -3.289,-3.901 -8.965,-3.166 -10.596,-7.224 -1.478,-3.679 0.127,-8.153 1.963,-10.028 3.66,-3.746 14.606,-0.688 13.342,-8.026 -3.357,-3.656 -11.877,-2.035 -13.342,-7.623 -1.261,-8.511 3.594,-10.767 9.024,-12.439 -0.075,-2.865 -0.858,-5.006 -0.785,-8.024 -8.575,1.098 -11.456,-3.234 -11.379,-8.025 0.148,-9.103 15.246,-8.461 9.418,-16.852 -4.385,-1.297 -7.743,1.718 -11.772,0.804 -7.728,-1.758 -5.719,-14.375 0.393,-16.851 -0.848,-2.879 -2.19,-5.25 -3.926,-7.223 -6.565,3.332 -14.908,1.33 -14.125,-7.223 0.451,-4.922 6.574,-8.045 6.67,-12.037 -1.035,-1.347 -2.213,-2.551 -3.531,-3.611 -5.223,1.08 -9.118,6.305 -14.125,5.217 -3.166,-0.688 -5.887,-3.674 -5.887,-8.026 0,-4.021 4.808,-7.791 3.924,-12.035 -0.278,-1.332 -1.987,-3.131 -3.532,-3.211 -4.287,-0.219 -7.468,8.494 -13.734,8.026 -9.135,-0.684 -6.75,-12.971 -4.707,-19.26 -6.891,-8.141 -9.223,6.984 -16.088,8.025 -9.93,1.504 -9.15,-8.678 -10.203,-18.857 -8.033,-4.063 -6.633,11.023 -14.127,12.437 -10.109,1.907 -10.307,-7.998 -12.949,-16.451 H 9.023 c -2.32,7.928 -5.294,17.813 -14.517,14.846 -5.686,-1.826 -4.91,-9.588 -9.027,-14.041 -1.526,0.176 -3.104,0.303 -4.315,0.801 -0.43,9.423 -1.857,17.836 -9.418,18.054 -7.836,0.229 -8.508,-7.924 -13.342,-12.035 -1.455,0.25 -2.297,1.127 -3.531,1.604 -1.439,5.543 1.523,10.478 -0.393,14.845 -1.277,2.918 -4.953,5.342 -8.632,5.217 -6.369,-0.219 -8.114,-9.9 -13.34,-9.228 -6.33,0.812 0.51,10.998 0,15.646 -0.539,4.9 -2.871,5.033 -6.279,7.625 -8.749,2.379 -9.383,-6.668 -14.913,-6.42 -1.195,0.053 -3.285,1.641 -3.531,3.209 -0.765,4.897 6.514,7.772 5.494,14.444 -0.449,2.943 -4.232,6.755 -7.062,7.224 -6.59,1.088 -6.684,-3.381 -13.735,-4.014 -7.277,6.131 6.893,9.418 5.495,18.456 -1.274,8.222 -9.92,7.267 -19.229,5.216 -6.135,7.202 6.338,8.743 8.24,14.044 3.682,10.26 -6.547,12.364 -16.873,12.438 -0.256,1.402 -0.26,2.197 -0.783,4.013 3.967,4.665 15.4,5.815 12.162,15.647 -1.92,5.836 -10.551,4.066 -14.908,7.223 0.019,1.849 -0.176,3.921 0.391,5.214 8.605,0.696 18.666,6.485 13.341,14.846 -2.927,4.597 -14.673,2.578 -11.379,11.235 8.495,1.503 19.315,0.923 17.264,11.234 -1.123,5.662 -8.822,5.027 -10.986,10.432 0.758,1.365 1.297,2.955 2.355,4.013 9.854,-2.123 19.369,-0.988 18.051,8.426 -0.75,5.34 -12.416,8.365 -5.887,14.041 5.002,0.297 9.024,-3.521 13.733,-2.406 3.101,0.734 5.994,4.289 5.886,8.023 -0.144,5.059 -4.824,5.914 -5.886,10.834 0.508,1.754 1.98,2.522 3.14,3.611 3.403,0.346 6.188,-4.158 9.809,-4.816 5.508,-0.998 10.373,2.197 10.596,7.223 0.162,3.703 -7.653,12.57 -0.393,13.24 3.707,0.344 5.658,-5.238 9.811,-6.418 4.908,-1.398 10.422,1.75 10.986,6.016 0.551,4.166 -2.629,5.75 -1.57,11.236 6.517,5.394 7.351,-7.512 15.302,-8.023 8.147,-0.528 8.805,7.082 9.028,15.646 7.793,4.197 6.656,-8.963 13.34,-10.432 4.066,-0.892 8.527,1.299 9.81,4.012 C -5.111,-6.33 -7.506,2.133 0,0"
             style="fill:#ef915e;fill-opacity:1;fill-rule:evenodd;stroke:none"
             id="path22" /></g><g
           id="g24"
           transform="translate(138.3652,277.6616)"><path
             d="m 0,0 c 2.57,-5.275 2.695,-12.152 8.631,-13.24 7.865,-1.438 9.43,5.486 12.164,11.234 1.143,0.453 2.84,-0.084 4.316,-0.4 1.7,-7.625 1.61,-14.283 8.241,-15.248 1.732,-0.25 4.546,0.097 5.886,0.802 4.069,2.149 4.282,12.573 10.594,7.625 -1.385,-8.919 1.195,-20.322 11.381,-16.451 3.553,1.352 5.465,6.547 8.24,6.42 6.717,-0.31 1.012,-7.914 1.176,-12.037 0.16,-3.99 3.531,-7.465 6.279,-8.025 8.274,-1.686 11.174,9.914 16.481,2.408 -0.682,-4.963 -4.537,-6.127 -4.317,-11.234 0.186,-4.282 4.094,-7.829 8.241,-8.026 3.865,-0.182 7.005,3.369 10.986,3.211 0.844,-1.01 1.611,-2.098 2.355,-3.211 -0.468,-3.713 -5.508,-5.307 -6.279,-9.226 -1.049,-5.344 2.621,-10.629 8.24,-10.832 3.547,-0.131 4.783,2.498 9.811,1.603 0.5,-1.363 1.394,-2.32 1.963,-3.611 -1.844,-4.535 -7.35,-4.479 -8.635,-8.826 -2.797,-9.483 7.307,-11.909 16.875,-12.038 0.18,-1.419 0.873,-2.316 0.785,-4.011 -3.289,-3.901 -8.965,-3.166 -10.596,-7.224 -1.478,-3.679 0.127,-8.153 1.963,-10.028 3.66,-3.746 14.606,-0.688 13.342,-8.026 -3.357,-3.656 -11.877,-2.035 -13.342,-7.623 -1.261,-8.511 3.594,-10.767 9.024,-12.439 -0.075,-2.865 -0.858,-5.006 -0.785,-8.024 -8.575,1.098 -11.456,-3.234 -11.379,-8.025 0.148,-9.103 15.246,-8.461 9.418,-16.852 -4.385,-1.297 -7.743,1.718 -11.772,0.804 -7.728,-1.758 -5.719,-14.375 0.393,-16.851 -0.848,-2.879 -2.19,-5.25 -3.926,-7.223 -6.565,3.332 -14.908,1.33 -14.125,-7.223 0.451,-4.922 6.574,-8.045 6.67,-12.037 -1.035,-1.347 -2.213,-2.551 -3.531,-3.611 -5.223,1.08 -9.118,6.305 -14.125,5.217 -3.166,-0.688 -5.887,-3.674 -5.887,-8.026 0,-4.021 4.808,-7.791 3.924,-12.035 -0.278,-1.332 -1.987,-3.131 -3.532,-3.211 -4.287,-0.219 -7.468,8.494 -13.734,8.026 -9.135,-0.684 -6.75,-12.971 -4.707,-19.26 -6.891,-8.141 -9.223,6.984 -16.088,8.025 -9.93,1.504 -9.15,-8.678 -10.203,-18.857 -8.033,-4.063 -6.633,11.023 -14.127,12.437 -10.109,1.907 -10.307,-7.998 -12.949,-16.451 H 9.023 c -2.32,7.928 -5.294,17.813 -14.517,14.846 -5.686,-1.826 -4.91,-9.588 -9.027,-14.041 -1.526,0.176 -3.104,0.303 -4.315,0.801 -0.43,9.423 -1.857,17.836 -9.418,18.054 -7.836,0.229 -8.508,-7.924 -13.342,-12.035 -1.455,0.25 -2.297,1.127 -3.531,1.604 -1.439,5.543 1.523,10.478 -0.393,14.845 -1.277,2.918 -4.953,5.342 -8.632,5.217 -6.369,-0.219 -8.114,-9.9 -13.34,-9.228 -6.33,0.812 0.51,10.998 0,15.646 -0.539,4.9 -2.871,5.033 -6.279,7.625 -8.749,2.379 -9.383,-6.668 -14.913,-6.42 -1.195,0.053 -3.285,1.641 -3.531,3.209 -0.765,4.897 6.514,7.772 5.494,14.444 -0.449,2.943 -4.232,6.755 -7.062,7.224 -6.59,1.088 -6.684,-3.381 -13.735,-4.014 -7.277,6.131 6.893,9.418 5.495,18.456 -1.274,8.222 -9.92,7.267 -19.229,5.216 -6.135,7.202 6.338,8.743 8.24,14.044 3.682,10.26 -6.547,12.364 -16.873,12.438 -0.256,1.402 -0.26,2.197 -0.783,4.013 3.967,4.665 15.4,5.815 12.162,15.647 -1.92,5.836 -10.551,4.066 -14.908,7.223 0.019,1.849 -0.176,3.921 0.391,5.214 8.605,0.696 18.666,6.485 13.341,14.846 -2.927,4.597 -14.673,2.578 -11.379,11.235 8.495,1.503 19.315,0.923 17.264,11.234 -1.123,5.662 -8.822,5.027 -10.986,10.432 0.758,1.365 1.297,2.955 2.355,4.013 9.854,-2.123 19.369,-0.988 18.051,8.426 -0.75,5.34 -12.416,8.365 -5.887,14.041 5.002,0.297 9.024,-3.521 13.733,-2.406 3.101,0.734 5.994,4.289 5.886,8.023 -0.144,5.059 -4.824,5.914 -5.886,10.834 0.508,1.754 1.98,2.522 3.14,3.611 3.403,0.346 6.188,-4.158 9.809,-4.816 5.508,-0.998 10.373,2.197 10.596,7.223 0.162,3.703 -7.653,12.57 -0.393,13.24 3.707,0.344 5.658,-5.238 9.811,-6.418 4.908,-1.398 10.422,1.75 10.986,6.016 0.551,4.166 -2.629,5.75 -1.57,11.236 6.517,5.394 7.351,-7.512 15.302,-8.023 8.147,-0.528 8.805,7.082 9.028,15.646 7.793,4.197 6.656,-8.963 13.34,-10.432 4.066,-0.892 8.527,1.299 9.81,4.012 C -5.111,-6.33 -7.506,2.133 0,0 Z"
             style="fill:none;stroke:#ffffff;stroke-width:2;stroke-linecap:butt;stroke-linejoin:miter;stroke-miterlimit:10;stroke-dasharray:none;stroke-opacity:1"
             id="path26" /></g><g
           id="g28"
           transform="translate(49.5645,78.8823)"><path
             d="M 0,0 59.02,114.317 H 193.725 L 200.363,92.93 100.797,0 Z"
             style="fill:#ffffff;fill-opacity:1;fill-rule:nonzero;stroke:none"
             id="path30" /></g><g
           id="g32"
           transform="translate(49.5645,78.8823)"><path
             d="M 0,0 59.02,114.317 H 193.725 L 200.363,92.93 100.797,0 Z"
             style="fill:none;stroke:#231f20;stroke-width:8.85;stroke-linecap:butt;stroke-linejoin:miter;stroke-miterlimit:10;stroke-dasharray:none;stroke-opacity:1"
             id="path34" /></g><g
           id="g36"
           transform="translate(110.3516,191.6841)"><path
             d="M 0,0 -7.52,22.569"
             style="fill:none;stroke:#231f20;stroke-width:5;stroke-linecap:butt;stroke-linejoin:miter;stroke-miterlimit:10;stroke-dasharray:none;stroke-opacity:1"
             id="path38" /></g><g
           id="g40"
           transform="translate(84.1563,208.6851)"><path
             d="M 0,0 C -9.1,0 -14.02,13.001 -4.111,20.663 -1.816,22.441 8.176,20.835 19.668,19.914 38.822,18.38 62.652,14.626 57.791,11.796 50.523,7.563 37.623,7.909 21.941,6.271 15.42,5.592 2.947,0 0,0"
             style="fill:#ffffff;fill-opacity:1;fill-rule:nonzero;stroke:#231f20;stroke-width:2.822;stroke-linecap:butt;stroke-linejoin:miter;stroke-miterlimit:10;stroke-dasharray:none;stroke-opacity:1"
             id="path42" /></g><g
           id="g44"
           transform="translate(106.6777,205.5542)"><path
             d="m 0,0 c 1.695,1.176 7.602,5.685 7.896,3.979 0.159,-3.06 0.659,-9.201 -1.335,-11.714 0.093,2.279 2.117,6.932 3.49,8.712 1.515,1.967 3.015,2.734 5.312,3.1 3.45,0.546 7.803,-0.266 11.28,-0.27 -3.789,0.325 -7.481,-1.321 -8.395,-5.148 -0.35,-1.46 -0.516,-4.356 0.623,-5.249 5.274,-4.149 12.67,8.023 7.772,10.397 4.152,-0.2 6.125,0.139 10.265,-0.035 0.649,-4.761 -0.617,-7.071 -0.594,-11.707 0.963,3.527 4.305,12.082 8.557,12.558 4.057,-1.332 -1.783,-14.761 5.055,-11.907 4.621,1.931 0.269,16.528 11.23,11.439 -8.062,5.324 -10.123,-8.963 -8.054,-10.683 6.97,-5.803 19.107,23.499 15.109,24.757 -4.525,-0.552 -11.086,-23.078 -2.94,-25.42 5.27,-1.516 10.905,8.852 12.629,12.313 1.145,2.293 5.008,13.107 1.735,13.107 -3.037,-1.427 -4.256,-14.14 -5.053,-17.115 -0.795,-2.967 -1.738,-7.052 -2.256,-10.069 1.406,4.932 4.518,12.086 8.563,12.403 4,-0.002 1.695,-8.176 1.881,-11.13 4.468,-0.732 12.263,4.034 14.109,7.995 1,2.147 2.627,4.56 -0.156,4.312 -2.727,-0.244 -5.897,-3.736 -6.43,-5.854 -2.389,-9.477 4.373,-8.712 9.252,-4.102 3.123,2.953 4.807,8.341 5.016,10.817 -0.254,-6.599 -1.844,-13.289 2.351,-13.168 3.768,0.113 4.844,10.162 5.154,13.13 -0.873,-3.831 -1.451,-10.544 -2.377,-14.428 1.526,3.446 2.055,12.779 6.786,13.605 3.92,0.197 -1.748,-12.395 0.941,-12.696 1.855,0.223 1.057,12.107 5.799,12.696 3.019,-0.47 1.224,-10.487 2.558,-11.852 1.848,-1.891 5.18,2.376 7.477,3.15"
             style="fill:none;stroke:#231f20;stroke-width:2;stroke-linecap:butt;stroke-linejoin:miter;stroke-miterlimit:10;stroke-dasharray:none;stroke-opacity:1"
             id="path46" /></g><g
           id="g48"
           transform="translate(212.6875,214.5454)"><path
             d="M 0,0 C -0.438,0.255 -0.705,0.257 -0.838,0.174 -0.953,0.083 -0.916,-0.007 -0.994,0.004 -1.063,0.003 -1.199,0.048 -1.408,0.11 c -0.219,0.069 -0.487,0.149 -0.951,0.272 -0.092,0.475 0.072,0.846 0.322,1.125 0.256,0.27 0.627,0.449 1.072,0.444 0.432,0.007 1,-0.247 1.233,-0.724 C 0.492,0.767 0.381,0.252 0,0"
             style="fill:#231f20;fill-opacity:1;fill-rule:nonzero;stroke:none"
             id="path50" /></g><g
           id="g52"
           transform="translate(157.0781,78.9331)"><path
             d="m 0,0 c -0.02,0.654 -0.588,1.129 -0.688,1.623 -0.158,0.789 0.358,1.316 0.168,1.771 -0.259,0.615 -1.945,1.223 -1.96,2.73 -1.301,0.109 -2.583,0.249 -3.352,1.464 -1.697,-0.852 -2.539,-0.78 -3.885,-0.584 -0.574,-0.908 -1.056,-1.859 -2.74,-2.205 -0.109,-1.26 -0.244,-2.505 -1.15,-3.357 0.794,-1.208 0.468,-2.456 0.427,-3.581 0.909,-0.5 1.91,-1.375 2.008,-2.871 1.346,-0.238 2.662,-0.549 3.58,-1.695 1.115,0.766 2.524,0.948 3.43,0.581 0.853,0.808 1.148,1.894 2.877,2.254 C -1.686,-2.413 0.041,-1.256 0,0 m -49.441,102.494 c 1.609,-3.642 2.988,-5.164 4.533,-7.422 4.113,-1.173 8.631,2.666 8.588,6.4 -1.475,2.488 -3.496,3.839 -4.434,7.459 3.801,-0.609 9.233,-2.893 11.025,-6.858 2.393,-5.282 -1.156,-7.071 -1.695,-10.382 -0.672,-4.168 1.664,-9.693 3.672,-15.183 3.356,-9.176 6.439,-18.994 9.633,-28.633 3.092,-9.342 5.84,-18.646 9.406,-28.399 1.17,-3.205 2.246,-6.771 3.942,-8.717 C -2.627,8.294 0.475,7.693 1.965,3.641 3.482,-0.496 2.021,-4.717 0.271,-6.74 c -6.048,-6.997 -16.931,-1.862 -16.455,7.744 0.104,2.023 1.579,4.783 1.539,6.756 -0.062,2.884 -1.691,6.467 -2.869,10.027 -5.619,16.965 -11.408,32.625 -17.226,50.204 -2.041,6.157 -4.328,15.763 -7.807,18.089 -1.781,1.189 -4.156,0.562 -5.795,2.47 -3.138,3.643 -1.635,10.438 -1.099,13.944"
             style="fill:#231f20;fill-opacity:1;fill-rule:evenodd;stroke:none"
             id="path54" /></g><g
           id="g56"
           transform="translate(157.0781,78.9331)"><path
             d="m 0,0 c -0.02,0.654 -0.588,1.129 -0.688,1.623 -0.158,0.789 0.358,1.316 0.168,1.771 -0.259,0.615 -1.945,1.223 -1.96,2.73 -1.301,0.109 -2.583,0.249 -3.352,1.464 -1.697,-0.852 -2.539,-0.78 -3.885,-0.584 -0.574,-0.908 -1.056,-1.859 -2.74,-2.205 -0.109,-1.26 -0.244,-2.505 -1.15,-3.357 0.794,-1.208 0.468,-2.456 0.427,-3.581 0.909,-0.5 1.91,-1.375 2.008,-2.871 1.346,-0.238 2.662,-0.549 3.58,-1.695 1.115,0.766 2.524,0.948 3.43,0.581 0.853,0.808 1.148,1.894 2.877,2.254 C -1.686,-2.413 0.041,-1.256 0,0"
             style="fill:#ffffff;fill-opacity:1;fill-rule:nonzero;stroke:none"
             id="path58" /></g><g
           id="g60"
           transform="translate(157.0781,78.9331)"><path
             d="m 0,0 c -0.02,0.654 -0.588,1.129 -0.688,1.623 -0.158,0.789 0.358,1.316 0.168,1.771 -0.259,0.615 -1.945,1.223 -1.96,2.73 -1.301,0.109 -2.583,0.249 -3.352,1.464 -1.697,-0.852 -2.539,-0.78 -3.885,-0.584 -0.574,-0.908 -1.056,-1.859 -2.74,-2.205 -0.109,-1.26 -0.244,-2.505 -1.15,-3.357 0.794,-1.208 0.468,-2.456 0.427,-3.581 0.909,-0.5 1.91,-1.375 2.008,-2.871 1.346,-0.238 2.662,-0.549 3.58,-1.695 1.115,0.766 2.524,0.948 3.43,0.581 0.853,0.808 1.148,1.894 2.877,2.254 C -1.686,-2.413 0.041,-1.256 0,0 Z"
             style="fill:none;stroke:#231f20;stroke-width:1.153;stroke-linecap:butt;stroke-linejoin:miter;stroke-miterlimit:10;stroke-dasharray:none;stroke-opacity:1"
             id="path62" /></g><g
           id="g64"
           transform="translate(56.9316,61.4292)"><path
             d="m 0,0 c 0.713,-0.42 1.828,-0.786 2.98,-0.786 1.428,0 2.233,0.677 2.233,1.682 0,0.934 -0.621,1.483 -2.176,2.05 -2.051,0.732 -3.35,1.811 -3.35,3.586 0,2.031 1.684,3.549 4.374,3.549 1.335,0 2.304,-0.293 2.945,-0.622 L 6.477,7.647 C 6.018,7.886 5.158,8.233 4.006,8.233 2.578,8.233 1.975,7.483 1.975,6.751 1.975,5.8 2.689,5.361 4.336,4.721 6.477,3.916 7.5,2.836 7.5,1.062 7.5,-0.933 6,-2.652 2.836,-2.652 c -1.318,0 -2.672,0.366 -3.35,0.786 z"
             style="fill:#231f20;fill-opacity:1;fill-rule:nonzero;stroke:none"
             id="path66" /></g><g
           id="g68"
           transform="translate(76.0762,58.978)"><path
             d="m 0,0 v 5.141 l -3.898,7.19 h 2.58 L 0.145,9.166 C 0.566,8.251 0.877,7.556 1.225,6.715 h 0.037 c 0.293,0.786 0.64,1.555 1.06,2.451 l 1.483,3.165 H 6.348 L 2.25,5.196 V 0 Z"
             style="fill:#231f20;fill-opacity:1;fill-rule:nonzero;stroke:none"
             id="path70" /></g><g
           id="g72"
           transform="translate(91.3574,71.3091)"><path
             d="m 0,0 h 2.232 v -5.672 h 0.055 c 0.293,0.476 0.604,0.915 0.897,1.336 L 6.422,0 h 2.762 l -4.245,-5.251 4.52,-7.08 H 6.824 L 3.348,-6.678 2.232,-7.995 v -4.336 H 0 Z"
             style="fill:#231f20;fill-opacity:1;fill-rule:nonzero;stroke:none"
             id="path74" /></g><g
           id="g76"
           transform="translate(109.582,71.3091)"><path
             d="m 0,0 h 2.232 v -5.672 h 0.055 c 0.293,0.476 0.604,0.915 0.897,1.336 L 6.422,0 h 2.764 l -4.247,-5.251 4.52,-7.08 H 6.824 L 3.35,-6.678 2.232,-7.995 v -4.336 H 0 Z"
             style="fill:#231f20;fill-opacity:1;fill-rule:nonzero;stroke:none"
             id="path78" /></g><g
           id="g80"
           transform="translate(134.7109,64.4487)"><path
             d="M 0,0 H -4.648 V -3.623 H 0.549 V -5.471 H -6.898 V 6.86 H 0.273 V 5.013 H -4.648 V 1.829 l 4.648,0 z"
             style="fill:#231f20;fill-opacity:1;fill-rule:nonzero;stroke:none"
             id="path82" /></g><g
           id="g84"
           transform="translate(144.7969,69.3354)"><path
             d="m 0,0 2.25,-1.383 v -7.09 h 5.068 v -1.884 H 0 Z"
             style="fill:#231f20;fill-opacity:1;fill-rule:nonzero;stroke:none"
             id="path86" /></g><g
           id="g88"
           transform="translate(158.5059,71.1772)"><path
             d="m 0,0 1.287,1.853 2.856,-3.019 0.039,0.037 c -0.114,0.547 -0.19,1.08 -0.266,1.587 L 3.287,5.833 5.295,7.731 5.82,1 13.969,-1.038 12.055,-2.849 5.645,-1.13 5.738,-2.854 8.719,-6.004 7.098,-7.538 Z"
             style="fill:#231f20;fill-opacity:1;fill-rule:nonzero;stroke:none"
             id="path90" /></g><g
           id="g92"
           transform="translate(172.1543,86.8198)"><path
             d="m 0,0 1.635,1.547 5.494,-5.809 c 2.338,-2.471 1.922,-4.426 0.154,-6.099 -0.465,-0.44 -1.099,-0.889 -1.584,-1.095 l -1.045,1.504 c 0.354,0.159 0.776,0.431 1.162,0.797 0.93,0.88 1.098,1.845 -0.373,3.4 z"
             style="fill:#231f20;fill-opacity:1;fill-rule:nonzero;stroke:none"
             id="path94" /></g><g
           id="g96"
           transform="translate(190.4902,90.2476)"><path
             d="m 0,0 c 0.635,0.021 1.197,0.251 1.742,0.767 1.61,1.521 1.17,3.876 -0.64,5.79 -0.581,0.611 -1.315,1.149 -2.225,1.472 L -1.164,7.991 Z M -2.799,8.257 C -3.447,8.197 -4.051,7.955 -4.568,7.465 -6.242,5.88 -5.713,3.51 -3.99,1.689 -3.25,0.905 -2.51,0.471 -1.639,0.162 l 0.026,0.025 z m 1.86,-12.243 -0.297,1.884 c -1.551,0.095 -3.108,0.864 -4.377,2.206 -2.567,2.711 -2.647,6.311 -0.162,8.663 0.771,0.728 1.666,1.221 2.652,1.376 l -0.26,1.793 1.547,0.254 0.297,-1.859 C -0.002,10.224 1.516,9.418 2.723,8.143 5.578,5.125 5.301,1.69 2.963,-0.522 2.205,-1.239 1.299,-1.719 0.348,-1.912 l 0.297,-1.937 z"
             style="fill:#231f20;fill-opacity:1;fill-rule:nonzero;stroke:none"
             id="path98" /></g><g
           id="g100"
           transform="translate(195.9414,109.3403)"><path
             d="m 0,0 1.621,1.534 3.897,-4.12 0.041,0.037 c -0.116,0.547 -0.192,1.08 -0.268,1.587 L 4.664,4.413 6.67,6.312 7.195,-0.42 15.344,-2.457 13.432,-4.268 7.02,-2.55 7.115,-4.274 10.096,-7.424 8.473,-8.958 Z"
             style="fill:#231f20;fill-opacity:1;fill-rule:nonzero;stroke:none"
             id="path102" /></g><g
           id="g104"
           transform="translate(209.1719,121.8667)"><path
             d="m 0,0 1.621,1.534 3.899,-4.12 0.039,0.037 c -0.114,0.547 -0.19,1.08 -0.266,1.587 L 4.664,4.413 6.672,6.312 7.197,-0.42 15.346,-2.458 13.432,-4.269 7.021,-2.55 7.115,-4.274 10.096,-7.424 8.475,-8.958 Z"
             style="fill:#231f20;fill-opacity:1;fill-rule:nonzero;stroke:none"
             id="path106" /></g><g
           id="g108"
           transform="translate(232.1211,134.144)"><path
             d="m 0,0 -3.375,-3.193 2.49,-2.632 3.774,3.571 1.269,-1.343 -5.408,-5.117 -8.475,8.958 5.209,4.929 1.272,-1.343 -3.576,-3.382 2.187,-2.312 3.377,3.193 z"
             style="fill:#231f20;fill-opacity:1;fill-rule:nonzero;stroke:none"
             id="path110" /></g><g
           id="g112"
           transform="translate(243.207,137.1079)"><path
             d="M 0,0 -8.475,8.958 -6.6,10.73 -0.654,9.077 C 0.873,8.634 2.387,8.101 3.717,7.52 L 3.742,7.545 C 2.492,8.628 1.371,9.759 0.076,11.128 l -2.955,3.123 1.516,1.434 L 7.111,6.727 5.41,5.117 -0.664,6.852 C -2.166,7.295 -3.781,7.831 -5.176,8.427 L -5.217,8.363 C -4.057,7.27 -2.91,6.111 -1.516,4.637 L 1.516,1.434 Z"
             style="fill:#231f20;fill-opacity:1;fill-rule:nonzero;stroke:none"
             id="path114" /></g></g></g></g></svg>
