<?xml version="1.0" encoding="UTF-8" standalone="no"?>
<svg
   width="64.000008"
   height="16"
   viewBox="0 0 64.000008 16"
   fill="none"
   version="1.1"
   id="svg2"
   sodipodi:docname="vipps_text.svg"
   inkscape:version="1.4.2 (ebf0e940d0, 2025-05-08)"
   xmlns:inkscape="http://www.inkscape.org/namespaces/inkscape"
   xmlns:sodipodi="http://sodipodi.sourceforge.net/DTD/sodipodi-0.dtd"
   xmlns="http://www.w3.org/2000/svg"
   xmlns:svg="http://www.w3.org/2000/svg">
  <defs
     id="defs2" />
  <sodipodi:namedview
     id="namedview2"
     pagecolor="#ffffff"
     bordercolor="#000000"
     borderopacity="0.25"
     inkscape:showpageshadow="2"
     inkscape:pageopacity="0.0"
     inkscape:pagecheckerboard="0"
     inkscape:deskcolor="#d1d1d1"
     inkscape:zoom="3.44361"
     inkscape:cx="23.667024"
     inkscape:cy="108.02617"
     inkscape:window-width="2560"
     inkscape:window-height="1335"
     inkscape:window-x="0"
     inkscape:window-y="0"
     inkscape:window-maximized="1"
     inkscape:current-layer="svg2" />
  <path
     fill-rule="evenodd"
     clip-rule="evenodd"
     d="M 64.000004,3.8384 C 63.280004,1.0907 61.531004,0 59.145004,0 c -1.934,0 -4.361,1.0907 -4.361,3.7171 0,1.6969 1.173,3.0305 3.085,3.3741 l 1.811,0.323 c 1.234,0.2221 1.584,0.6869 1.584,1.3132 0,0.7071 -0.761,1.111 -1.893,1.111 -1.481,0 -2.406,-0.5252 -2.551,-2.0001 l -2.612,0.4041 c 0.411,2.8484 2.962,4.0205 5.266,4.0205 2.181,0 4.505,-1.2528 4.505,-3.778 0,-1.7174 -1.049,-2.9696 -3.003,-3.3337 l -1.995,-0.3633 c -1.112,-0.202 -1.482,-0.7475 -1.482,-1.2728 0,-0.6667 0.72,-1.0906 1.708,-1.0906 1.255,0 2.139,0.4239 2.18,1.8178 z M 5.925,8.1613 8.64,0.3028 h 3.187999 L 7.097,11.9594 H 4.731 L 0,0.3031 H 3.188 Z M 22.607999,3.6364 c 0,0.9291 -0.74,1.5756 -1.604,1.5756 -0.864,0 -1.605,-0.6465 -1.605,-1.5756 0,-0.9294 0.741,-1.5757 1.605,-1.5757 0.864,0 1.605,0.6463 1.605,1.5757 z m 0.494,4.1213 c -1.07,1.3734 -2.201,2.3229 -4.197,2.323 -2.036,0 -3.62,-1.2121 -4.854,-2.9898 -0.494,-0.7274 -1.255,-0.8889 -1.811,-0.505 -0.514,0.3637 -0.637,1.1314 -0.164,1.7981 1.707,2.5657 4.073,4.0603 6.829,4.0603 2.531,0 4.506,-1.2119 6.048,-3.2322 0.576,-0.7473 0.556,-1.515 0,-1.9393 -0.514,-0.4044 -1.275,-0.2624 -1.851,0.4849 z M 30.2,6.1009 c 0,2.384 1.399,3.6367 2.963,3.6367 1.48,0 3.003,-1.1719 3.003,-3.6367 0,-2.4245 -1.523,-3.5959 -2.983,-3.5959 -1.584,0 -2.983,1.111 -2.983,3.5959 z m 0,-4.1815 V 0.323 H 27.299999 V 16 H 30.2 v -5.576 c 0.967,1.2931 2.222,1.8389 3.641,1.8389 2.654,0 5.246004,-2.0608 5.246004,-6.3031 C 39.087004,1.8988 36.392,2e-4 34.088,2e-4 32.257,2e-4 31.002,0.8283 30.2,1.9194 Z m 13.928004,4.1815 c 0,2.384 1.398,3.6367 2.962,3.6367 1.481,0 3.003,-1.1719 3.003,-3.6367 0,-2.4245 -1.522,-3.5959 -2.983,-3.5959 -1.584,0 -2.983,1.111 -2.983,3.5959 z m 0,-4.1815 V 0.323 h -10e-4 -2.9 V 16 h 2.9 v -5.576 c 0.967,1.2931 2.222,1.8389 3.641,1.8389 2.654,0 5.246,-2.0608 5.246,-6.3031 0,-4.061 -2.695,-5.9596 -4.999,-5.9596 -1.831,0 -3.085,0.8281 -3.887,1.9192 z"
     fill="#ffffff"
     id="path2" />
</svg>
