<svg width="250" height="44" viewBox="0 0 250 44" fill="none" xmlns="http://www.w3.org/2000/svg">
<rect width="250" height="44" rx="5" fill="#FF5B24"/>
<path d="M47.8488 16.364H51.9188C54.3978 16.364 55.7853 17.6405 55.7853 19.62C55.7853 20.5265 55.2303 21.6365 54.0833 22.2655C55.6743 22.7835 56.3033 23.875 56.3033 24.9295C56.3033 26.9275 54.6938 28.5 52.1408 28.5H47.8488V16.364ZM49.9763 23.2645V26.5945H51.9373C53.1953 26.5945 54.1203 26.095 54.1203 24.9295C54.1203 23.986 53.2323 23.2645 51.9373 23.2645H49.9763ZM49.9763 18.2695V21.4515H51.7523C52.8623 21.4515 53.6578 20.8595 53.6578 19.8975C53.6578 18.8615 52.9733 18.2695 51.7523 18.2695H49.9763ZM62.5026 20.656C61.1706 20.656 60.2456 21.359 59.9496 22.765H65.0001C64.8151 21.2665 63.7976 20.656 62.5026 20.656ZM66.9241 24.282H59.8756C60.0236 25.9285 60.9486 27.0015 62.6321 27.0015C64.1491 27.0015 64.7596 26.354 64.9816 25.281L66.8501 25.5955C66.4986 27.76 64.4266 28.7405 62.7061 28.7405C59.9681 28.7405 57.8221 26.872 57.8221 23.801C57.8221 20.804 59.8756 18.917 62.5766 18.917C65.1111 18.917 66.9241 20.8595 66.9241 23.616V24.282ZM69.4481 16.919L71.4646 16.6045V19.176H73.7956V20.804H71.4646V25.8545C71.4646 26.576 71.7606 26.946 72.5746 26.946C72.9631 26.946 73.1851 26.909 73.5551 26.8165L73.8696 28.4445C73.3886 28.5925 72.7226 28.7405 72.1676 28.7405C70.2991 28.7405 69.4481 27.6675 69.4481 25.947V20.804H67.7091V19.176H69.4481V16.919ZM79.1821 28.7405C77.2581 28.7405 75.0936 27.1495 75.0936 23.7455C75.0936 20.4895 77.2396 18.917 79.2006 18.917C80.6621 18.917 81.6796 19.5275 82.3456 20.989V19.176H84.3621V28.5H82.3456V26.5945C81.8831 27.723 80.8471 28.7405 79.1821 28.7405ZM79.7556 20.656C78.4791 20.656 77.1286 21.655 77.1286 23.8565C77.1286 26.021 78.4606 26.983 79.7371 26.983C81.1246 26.983 82.3456 26.0765 82.3456 23.8565C82.3456 21.692 81.1246 20.656 79.7556 20.656ZM86.9591 15.957H88.9756V28.5H86.9591V15.957ZM106.598 20.7485C105.451 20.7485 104.618 21.507 104.618 23.172V28.5H102.583V23.1165C102.583 21.396 101.769 20.7485 100.696 20.7485C99.4753 20.7485 98.5688 21.507 98.5688 23.172V28.5H96.5523V19.176H98.5688V20.582C99.2163 19.361 100.493 18.917 101.566 18.917C102.768 18.917 103.897 19.398 104.378 20.7115C105.081 19.324 106.376 18.917 107.412 18.917C109.114 18.917 110.649 19.7495 110.649 22.247V28.5H108.633V23.1165C108.633 21.396 107.763 20.7485 106.598 20.7485ZM117.244 20.656C115.912 20.656 114.987 21.359 114.691 22.765H119.741C119.556 21.2665 118.539 20.656 117.244 20.656ZM121.665 24.282H114.617C114.765 25.9285 115.69 27.0015 117.373 27.0015C118.89 27.0015 119.501 26.354 119.723 25.281L121.591 25.5955C121.24 27.76 119.168 28.7405 117.447 28.7405C114.709 28.7405 112.563 26.872 112.563 23.801C112.563 20.804 114.617 18.917 117.318 18.917C119.852 18.917 121.665 20.8595 121.665 23.616V24.282ZM132.292 15.957V28.5H130.276V26.724C129.813 27.8525 128.777 28.7405 127.094 28.7405C125.188 28.7405 123.024 27.1495 123.024 23.7455C123.024 20.4895 125.17 18.917 127.353 18.917C128.592 18.917 129.628 19.5275 130.276 20.989V15.957H132.292ZM127.686 20.656C126.409 20.656 125.059 21.692 125.059 23.8565C125.059 25.9655 126.391 26.983 127.667 26.983C129.055 26.983 130.276 26.021 130.276 23.8565C130.276 21.7475 129.055 20.656 127.686 20.656Z" fill="white"/>
<path fill-rule="evenodd" clip-rule="evenodd" d="M204 20.3784C203.28 17.6307 201.531 16.54 199.145 16.54C197.211 16.54 194.784 17.6307 194.784 20.2571C194.784 21.954 195.957 23.2876 197.869 23.6312L199.68 23.9542C200.914 24.1763 201.264 24.6411 201.264 25.2674C201.264 25.9745 200.503 26.3784 199.371 26.3784C197.89 26.3784 196.965 25.8532 196.82 24.3783L194.208 24.7824C194.619 27.6308 197.17 28.8029 199.474 28.8029C201.655 28.8029 203.979 27.5501 203.979 25.0249C203.979 23.3075 202.93 22.0553 200.976 21.6912L198.981 21.3279C197.869 21.1259 197.499 20.5804 197.499 20.0551C197.499 19.3884 198.219 18.9645 199.207 18.9645C200.462 18.9645 201.346 19.3884 201.387 20.7823L204 20.3784ZM145.925 24.7013L148.64 16.8428H151.828L147.097 28.4994H144.731L140 16.8431H143.188L145.925 24.7013ZM162.608 20.1764C162.608 21.1056 161.868 21.752 161.004 21.752C160.14 21.752 159.399 21.1056 159.399 20.1764C159.399 19.247 160.14 18.6008 161.004 18.6008C161.868 18.6008 162.609 19.247 162.609 20.1764H162.608ZM163.102 24.2977C162.032 25.6711 160.901 26.6206 158.905 26.6207C156.869 26.6207 155.285 25.4086 154.051 23.6309C153.557 22.9035 152.796 22.742 152.24 23.1259C151.726 23.4896 151.603 24.2573 152.076 24.924C153.783 27.4897 156.149 28.9843 158.905 28.9843C161.436 28.9843 163.411 27.7724 164.953 25.7521C165.529 25.0048 165.509 24.2371 164.953 23.8128C164.439 23.4084 163.678 23.5504 163.102 24.2977ZM170.2 22.6409C170.2 25.0249 171.599 26.2775 173.163 26.2775C174.643 26.2775 176.166 25.1057 176.166 22.6409C176.166 20.2164 174.643 19.045 173.183 19.045C171.599 19.045 170.2 20.156 170.2 22.6409ZM170.2 18.4594V16.863H167.3V32.54H170.2V26.964C171.167 28.2571 172.422 28.8029 173.841 28.8029C176.495 28.8029 179.087 26.7421 179.087 22.4998C179.087 18.4388 176.392 16.5402 174.088 16.5402C172.257 16.5402 171.002 17.3683 170.2 18.4594ZM184.128 22.6409C184.128 25.0249 185.526 26.2775 187.09 26.2775C188.571 26.2775 190.093 25.1057 190.093 22.6409C190.093 20.2164 188.571 19.045 187.11 19.045C185.526 19.045 184.127 20.156 184.127 22.6409H184.128ZM184.128 18.4594V16.863H184.127H181.227V32.54H184.127V26.964C185.094 28.2571 186.349 28.8029 187.768 28.8029C190.422 28.8029 193.014 26.7421 193.014 22.4998C193.014 18.4388 190.319 16.5402 188.015 16.5402C186.184 16.5402 184.93 17.3683 184.128 18.4594Z" fill="white"/>
</svg>
