<svg width="250" height="44" viewBox="0 0 250 44" fill="none" xmlns="http://www.w3.org/2000/svg">
<rect width="250" height="44" rx="5" fill="#FF5B24"/>
<path d="M56.986 18.251V22.802H59.1135C60.5195 22.802 61.2965 21.988 61.2965 20.5635C61.2965 19.065 60.5195 18.251 59.1505 18.251H56.986ZM54.8585 16.364H59.317C62.018 16.364 63.572 17.807 63.572 20.5265C63.572 22.876 61.9255 24.689 59.3355 24.689H56.986V28.5H54.8585V16.364ZM68.7036 28.7405C66.7796 28.7405 64.6151 27.1495 64.6151 23.7455C64.6151 20.4895 66.7611 18.917 68.7221 18.917C70.1836 18.917 71.2011 19.5275 71.8671 20.989V19.176H73.8836V28.5H71.8671V26.5945C71.4046 27.723 70.3686 28.7405 68.7036 28.7405ZM69.2771 20.656C68.0006 20.656 66.6501 21.655 66.6501 23.8565C66.6501 26.021 67.9821 26.983 69.2586 26.983C70.6461 26.983 71.8671 26.0765 71.8671 23.8565C71.8671 21.692 70.6461 20.656 69.2771 20.656ZM77.165 31.7375C76.536 31.7375 75.9995 31.608 75.5555 31.4045L75.87 29.647C76.166 29.832 76.6285 30.054 77.35 30.054C78.7375 30.054 79.1815 28.9625 78.719 27.7785L75.278 19.176H77.535L79.9955 26.465L82.345 19.176H84.5835L80.865 28.8885C80.1435 30.7755 78.978 31.7375 77.165 31.7375ZM104.235 19.176L100.886 28.5H99.1472L97.0012 22.5985L94.8552 28.5H93.0977L89.7492 19.176H92.0062L94.0042 25.947L96.2427 19.176H97.7412L99.9982 25.984L101.996 19.176H104.235ZM105.622 19.176H107.657V28.5H105.622V19.176ZM106.639 15.143C107.305 15.143 107.842 15.698 107.842 16.364C107.842 17.03 107.305 17.5665 106.639 17.5665C105.955 17.5665 105.418 17.03 105.418 16.364C105.418 15.698 105.955 15.143 106.639 15.143ZM110.82 16.919L112.837 16.6045V19.176H115.168V20.804H112.837V25.8545C112.837 26.576 113.133 26.946 113.947 26.946C114.335 26.946 114.557 26.909 114.927 26.8165L115.242 28.4445C114.761 28.5925 114.095 28.7405 113.54 28.7405C111.671 28.7405 110.82 27.6675 110.82 25.947V20.804H109.081V19.176H110.82V16.919ZM117.058 15.957H119.074V20.582C119.722 19.361 121.072 18.917 122.053 18.917C123.847 18.917 125.383 19.7495 125.383 22.247V28.5H123.348V23.1165C123.348 21.396 122.478 20.7485 121.405 20.7485C120.036 20.7485 119.074 21.507 119.074 23.172V28.5H117.058V15.957Z" fill="white"/>
<path fill-rule="evenodd" clip-rule="evenodd" d="M197 20.3784C196.28 17.6307 194.531 16.54 192.145 16.54C190.211 16.54 187.784 17.6307 187.784 20.2571C187.784 21.954 188.957 23.2876 190.869 23.6312L192.68 23.9542C193.914 24.1763 194.264 24.6411 194.264 25.2674C194.264 25.9745 193.503 26.3784 192.371 26.3784C190.89 26.3784 189.965 25.8532 189.82 24.3783L187.208 24.7824C187.619 27.6308 190.17 28.8029 192.474 28.8029C194.655 28.8029 196.979 27.5501 196.979 25.0249C196.979 23.3075 195.93 22.0553 193.976 21.6912L191.981 21.3279C190.869 21.1259 190.499 20.5804 190.499 20.0551C190.499 19.3884 191.219 18.9645 192.207 18.9645C193.462 18.9645 194.346 19.3884 194.387 20.7823L197 20.3784ZM138.925 24.7013L141.64 16.8428H144.828L140.097 28.4994H137.731L133 16.8431H136.188L138.925 24.7013ZM155.608 20.1764C155.608 21.1055 154.868 21.752 154.004 21.752C153.14 21.752 152.399 21.1055 152.399 20.1764C152.399 19.247 153.14 18.6007 154.004 18.6007C154.868 18.6007 155.609 19.247 155.609 20.1764H155.608ZM156.102 24.2977C155.032 25.6711 153.901 26.6206 151.905 26.6207C149.869 26.6207 148.285 25.4086 147.051 23.6309C146.557 22.9035 145.796 22.742 145.24 23.1259C144.726 23.4896 144.603 24.2573 145.076 24.924C146.783 27.4897 149.149 28.9843 151.905 28.9843C154.436 28.9843 156.411 27.7724 157.953 25.7521C158.529 25.0048 158.509 24.2371 157.953 23.8128C157.439 23.4084 156.678 23.5504 156.102 24.2977ZM163.2 22.6409C163.2 25.0249 164.599 26.2776 166.163 26.2776C167.643 26.2776 169.166 25.1057 169.166 22.6409C169.166 20.2164 167.643 19.045 166.183 19.045C164.599 19.045 163.2 20.156 163.2 22.6409ZM163.2 18.4594V16.863H160.3V32.54H163.2V26.964C164.167 28.2571 165.422 28.8029 166.841 28.8029C169.495 28.8029 172.087 26.7421 172.087 22.4998C172.087 18.4388 169.392 16.5402 167.088 16.5402C165.257 16.5402 164.002 17.3683 163.2 18.4594ZM177.128 22.6409C177.128 25.0249 178.526 26.2776 180.09 26.2776C181.571 26.2776 183.093 25.1057 183.093 22.6409C183.093 20.2164 181.571 19.045 180.11 19.045C178.526 19.045 177.127 20.156 177.127 22.6409H177.128ZM177.128 18.4594V16.863H177.127H174.227V32.54H177.127V26.964C178.094 28.2571 179.349 28.8029 180.768 28.8029C183.422 28.8029 186.014 26.7421 186.014 22.4998C186.014 18.4388 183.319 16.5402 181.015 16.5402C179.184 16.5402 177.93 17.3683 177.128 18.4594Z" fill="white"/>
</svg>
